<svg width="52" height="52" viewBox="0 0 52 52" fill="none" xmlns="http://www.w3.org/2000/svg">
<circle cx="26" cy="25.9996" r="26" fill="#3485FF"/>
<path d="M34 34.9996V32.9996C34 31.9388 33.5786 30.9214 32.8284 30.1712C32.0783 29.4211 31.0609 28.9996 30 28.9996H22C20.9391 28.9996 19.9217 29.4211 19.1716 30.1712C18.4214 30.9214 18 31.9388 18 32.9996V34.9996" stroke="#FAFAFA" stroke-width="2" stroke-linecap="round" stroke-linejoin="round"/>
<path d="M26 24.9996C28.2091 24.9996 30 23.2088 30 20.9996C30 18.7905 28.2091 16.9996 26 16.9996C23.7909 16.9996 22 18.7905 22 20.9996C22 23.2088 23.7909 24.9996 26 24.9996Z" stroke="#FAFAFA" stroke-width="2" stroke-linecap="round" stroke-linejoin="round"/>
</svg>
