<?xml version="1.0" standalone="no"?>
<!DOCTYPE svg PUBLIC "-//W3C//DTD SVG 20010904//EN"
 "http://www.w3.org/TR/2001/REC-SVG-20010904/DTD/svg10.dtd">
<svg version="1.0" xmlns="http://www.w3.org/2000/svg"
 width="512.000000pt" height="512.000000pt" viewBox="0 0 512.000000 512.000000"
 preserveAspectRatio="xMidYMid meet">

<g transform="translate(0.000000,512.000000) scale(0.100000,-0.100000)"
fill="#000000" stroke="none">
<path d="M2116 5104 c-168 -41 -316 -173 -378 -339 -22 -56 -23 -78 -26 -348
-3 -322 -3 -325 65 -353 28 -12 42 -13 69 -4 66 22 68 33 74 335 5 255 6 273
28 320 44 96 133 165 237 185 42 8 317 10 925 8 l865 -3 -355 -119 c-195 -65
-381 -132 -412 -149 -75 -38 -141 -110 -181 -195 l-32 -67 -5 -1760 -5 -1760
-400 0 c-362 0 -405 2 -453 18 -70 25 -152 101 -183 169 -23 51 -24 66 -29
323 -6 302 -8 313 -74 335 -27 9 -41 8 -69 -4 -68 -28 -68 -31 -65 -353 3
-270 4 -292 26 -348 46 -122 140 -231 253 -290 117 -61 148 -65 597 -65 l402
0 0 -145 c0 -120 4 -156 20 -202 29 -84 83 -158 150 -207 84 -62 145 -81 255
-81 l90 1 680 228 c374 125 700 239 725 254 94 54 174 164 199 273 15 65 15
3950 0 4021 -33 153 -158 283 -313 324 -77 21 -2594 19 -2680 -2z m2725 -264
c32 -32 49 -59 57 -92 9 -35 12 -532 12 -1976 0 -1670 -2 -1935 -15 -1978 -15
-51 -59 -106 -104 -128 -14 -7 -321 -111 -681 -232 -730 -243 -721 -241 -807
-188 -34 21 -55 44 -75 83 l-28 53 0 1958 c0 1436 3 1966 11 1991 17 50 55 97
97 118 57 28 1332 450 1372 453 64 6 112 -13 161 -62z"/>
<path d="M1350 3833 c-49 -18 -80 -83 -65 -135 4 -12 161 -177 348 -365 l341
-343 -937 0 c-1027 0 -990 2 -1021 -59 -20 -38 -20 -64 0 -102 31 -61 -6 -59
1021 -59 l937 0 -341 -342 c-187 -189 -344 -354 -348 -366 -28 -94 75 -175
157 -124 59 37 896 884 903 915 4 15 4 39 0 55 -4 18 -148 169 -428 451 -232
233 -440 436 -461 452 -37 27 -72 35 -106 22z"/>
</g>
</svg>
