<svg width="44" height="44" viewBox="0 0 44 44" fill="none" xmlns="http://www.w3.org/2000/svg">
<rect y="-3.8147e-06" width="43.832" height="43.832" rx="7.88976" fill="url(#paint0_linear)"/>
<g filter="url(#filter0_di)">
<path d="M33.2581 32.413H29.3488C29.1853 32.413 29.0508 32.2854 29.0363 32.1225C29.0317 32.071 29.0268 32.0211 29.0215 31.9726C28.7974 29.9298 26.5983 28.1752 24.5583 28.4238C23.0693 28.6052 21.8351 29.7293 20.3445 29.8976C19.3393 30.011 18.4622 29.9594 17.4597 29.7629C16.5809 29.5907 15.7327 29.2756 14.952 28.8372C13.1132 27.8044 12.126 26.7409 11.2107 25.1387C10.681 24.2113 10.303 23.1958 10.1655 22.1367C10.0517 21.2602 10.0589 20.4879 10.1545 19.6373C10.3005 18.3379 10.7168 17.0731 11.3964 15.956C12.3505 14.3877 13.3817 13.4125 15.0617 12.4997C15.7732 12.1131 16.5387 11.8305 17.3297 11.6567C19.3324 11.2169 20.629 11.3458 22.576 11.956C23.6591 12.2955 24.8356 13.0229 25.8362 13.9722C28.0243 16.0481 28.1912 19.3058 28.2465 22.3215C28.2516 22.601 27.9961 22.8125 27.721 22.7627C26.3697 22.5183 25.3982 22.4987 24.0703 22.7098C23.7144 22.7664 23.4215 22.3979 23.5175 22.0505C23.5592 21.8998 23.5918 21.7518 23.6163 21.6058C24.0089 19.2711 22.4112 16.606 20.0548 16.3763C18.718 16.246 17.3944 16.7918 16.4139 17.8864C15.8287 18.4381 15.505 19.3034 15.4029 20.2261C15.1383 22.6172 17.0941 24.9295 19.4971 25.0438C19.9556 25.0656 20.3982 24.999 20.8506 24.8457C22.276 24.3625 23.6654 23.6404 25.1662 23.7534C29.6813 24.0934 32.8523 26.1288 33.6867 31.9218C33.7241 32.1814 33.5204 32.413 33.2581 32.413Z" fill="#FAFAFA"/>
</g>
<defs>
<filter id="filter0_di" x="8.44912" y="11.3963" width="26.8744" height="24.2814" filterUnits="userSpaceOnUse" color-interpolation-filters="sRGB">
<feFlood flood-opacity="0" result="BackgroundImageFix"/>
<feColorMatrix in="SourceAlpha" type="matrix" values="0 0 0 0 0 0 0 0 0 0 0 0 0 0 0 0 0 0 127 0"/>
<feOffset dy="1.63237"/>
<feGaussianBlur stdDeviation="0.816183"/>
<feColorMatrix type="matrix" values="0 0 0 0 0 0 0 0 0 0 0 0 0 0 0 0 0 0 0.07 0"/>
<feBlend mode="normal" in2="BackgroundImageFix" result="effect1_dropShadow"/>
<feBlend mode="normal" in="SourceGraphic" in2="effect1_dropShadow" result="shape"/>
<feColorMatrix in="SourceAlpha" type="matrix" values="0 0 0 0 0 0 0 0 0 0 0 0 0 0 0 0 0 0 127 0" result="hardAlpha"/>
<feOffset dy="1.63237"/>
<feGaussianBlur stdDeviation="1.02023"/>
<feComposite in2="hardAlpha" operator="arithmetic" k2="-1" k3="1"/>
<feColorMatrix type="matrix" values="0 0 0 0 0.219608 0 0 0 0 0.533333 0 0 0 0 1 0 0 0 0.13 0"/>
<feBlend mode="normal" in2="shape" result="effect2_innerShadow"/>
</filter>
<linearGradient id="paint0_linear" x1="52.463" y1="-66.3077" x2="19.6129" y2="48.5381" gradientUnits="userSpaceOnUse">
<stop stop-color="#5498FF"/>
<stop offset="0.515625" stop-color="#428EFF"/>
<stop offset="1" stop-color="#297FFF"/>
</linearGradient>
</defs>
</svg>
