<svg width="167" height="44" viewBox="0 0 167 44" fill="none" xmlns="http://www.w3.org/2000/svg">
<path d="M56.4039 29.9999V14.7885H61.2324V17.9759C61.4849 16.8819 62.0003 16.0403 62.7788 15.4512C63.5783 14.8411 64.4619 14.536 65.4298 14.536C65.9347 14.536 66.3555 14.5781 66.6921 14.6622V19.1436C66.1241 19.0805 65.6402 19.0489 65.2404 19.0489C62.5684 19.0489 61.2324 20.7426 61.2324 24.13V29.9999H56.4039ZM80.6814 28.2011C79.1666 29.7159 77.1258 30.4733 74.559 30.4733C71.9922 30.4733 69.9408 29.7159 68.4049 28.2011C66.8691 26.6862 66.1011 24.7506 66.1011 22.3942C66.1011 20.0378 66.8691 18.1127 68.4049 16.6189C69.9408 15.1041 71.9922 14.3466 74.559 14.3466C77.1258 14.3466 79.1666 15.1041 80.6814 16.6189C82.2173 18.1127 82.9852 20.0378 82.9852 22.3942C82.9852 24.7506 82.2173 26.6862 80.6814 28.2011ZM74.559 26.3706C75.674 26.3706 76.5577 26.0025 77.2099 25.2661C77.8621 24.5297 78.1882 23.5724 78.1882 22.3942C78.1882 21.216 77.8621 20.2587 77.2099 19.5223C76.5577 18.786 75.674 18.4178 74.559 18.4178C73.4228 18.4178 72.5287 18.786 71.8764 19.5223C71.2453 20.2587 70.9297 21.216 70.9297 22.3942C70.9297 23.5724 71.2453 24.5297 71.8764 25.2661C72.5287 26.0025 73.4228 26.3706 74.559 26.3706ZM91.3346 30.4733C88.8519 30.4733 86.8742 29.7369 85.4015 28.2642C83.9287 26.7704 83.1923 24.8137 83.1923 22.3942C83.1923 19.9747 83.9287 18.0285 85.4015 16.5558C86.8742 15.083 88.8519 14.3466 91.3346 14.3466C93.5858 14.3466 95.4162 14.9042 96.8258 16.0193C98.2355 17.1344 99.035 18.6492 99.2243 20.5638H94.3958C94.0381 19.1331 93.0282 18.4178 91.3661 18.4178C90.3142 18.4178 89.4936 18.7649 88.9045 19.4592C88.3154 20.1535 88.0209 21.1318 88.0209 22.3942C88.0209 23.6566 88.3154 24.6349 88.9045 25.3292C89.4936 26.0235 90.3142 26.3706 91.3661 26.3706C93.0282 26.3706 94.0381 25.6974 94.3958 24.3509H99.2243C99.035 26.2234 98.2355 27.7172 96.8258 28.8323C95.4162 29.9263 93.5858 30.4733 91.3346 30.4733ZM115.655 29.9999H109.753L104.924 23.4041V29.9999H100.096V7.9086H104.924V21.1318L109.879 14.7885H115.56L109.5 21.9839L115.655 29.9999ZM129.681 21.6052C129.681 22.2364 129.638 22.9412 129.554 23.7197H118.319C118.361 24.7085 118.698 25.4765 119.329 26.0235C119.96 26.5705 120.812 26.844 121.885 26.844C123.358 26.844 124.305 26.3706 124.726 25.4239H129.46C129.228 26.9177 128.408 28.138 126.998 29.0847C125.609 30.0105 123.905 30.4733 121.885 30.4733C119.298 30.4733 117.257 29.758 115.763 28.3273C114.269 26.8966 113.522 24.9189 113.522 22.3942C113.522 19.9116 114.269 17.9549 115.763 16.5242C117.257 15.0725 119.245 14.3466 121.728 14.3466C124.084 14.3466 125.999 15.0199 127.471 16.3664C128.944 17.7129 129.681 19.4592 129.681 21.6052ZM118.319 20.7216H124.915C124.894 19.7117 124.61 18.9332 124.063 18.3862C123.516 17.8392 122.727 17.5657 121.696 17.5657C120.665 17.5657 119.845 17.8602 119.234 18.4493C118.645 19.0174 118.34 19.7748 118.319 20.7216ZM138.472 26.2444C139.145 26.2444 139.703 26.2128 140.145 26.1497V29.9999C139.219 30.1683 138.146 30.2524 136.926 30.2524C136.379 30.2524 135.895 30.2208 135.474 30.1577C135.053 30.0946 134.58 29.9579 134.054 29.7475C133.528 29.516 133.096 29.211 132.76 28.8323C132.423 28.4535 132.129 27.9065 131.876 27.1912C131.645 26.4758 131.529 25.6343 131.529 24.6665V18.6071H129.13V14.7885H131.529V10.2755H136.358V14.7885H139.797V18.6071H136.358V23.6566C136.358 24.6875 136.536 25.3818 136.894 25.7395C137.252 26.0761 137.778 26.2444 138.472 26.2444ZM159.84 14.7885H164.637V36.3117H159.808V28.6745H159.84V27.8539C159.419 28.6113 158.767 29.232 157.883 29.7159C157.021 30.1788 156.063 30.4102 155.011 30.4102C152.802 30.4102 151.056 29.6633 149.773 28.1695C148.489 26.6757 147.847 24.7506 147.847 22.3942C147.847 20.0799 148.51 18.1653 149.836 16.6505C151.161 15.1356 152.907 14.3782 155.074 14.3782C156.147 14.3782 157.105 14.6096 157.946 15.0725C158.788 15.5354 159.419 16.1665 159.84 16.966V14.7885ZM156.4 26.4022C157.557 26.4022 158.451 26.0235 159.082 25.2661C159.714 24.5087 160.029 23.5514 160.029 22.3942C160.029 21.2581 159.714 20.3113 159.082 19.5539C158.451 18.7965 157.557 18.4178 156.4 18.4178C155.306 18.4178 154.422 18.786 153.749 19.5223C153.097 20.2587 152.771 21.216 152.771 22.3942C152.771 23.5724 153.097 24.5402 153.749 25.2976C154.422 26.034 155.306 26.4022 156.4 26.4022Z" fill="#0D114F"/>
<path d="M146.158 29.4003C145.569 30.0105 144.833 30.3155 143.949 30.3155C143.066 30.3155 142.319 30.0105 141.708 29.4003C141.119 28.7902 140.825 28.0643 140.825 27.2227C140.825 26.3601 141.119 25.6343 141.708 25.0452C142.319 24.435 143.066 24.13 143.949 24.13C144.833 24.13 145.569 24.435 146.158 25.0452C146.768 25.6343 147.074 26.3601 147.074 27.2227C147.074 28.0643 146.768 28.7902 146.158 29.4003Z" fill="url(#paint0_linear)"/>
<rect y="-6.10352e-05" width="43.832" height="43.832" rx="7.88976" fill="url(#paint1_linear)"/>
<g filter="url(#filter0_di)">
<path d="M33.258 32.413H29.3487C29.1852 32.413 29.0508 32.2854 29.0363 32.1225C29.0317 32.071 29.0267 32.021 29.0214 31.9725C28.7973 29.9298 26.5982 28.1752 24.5583 28.4238C23.0692 28.6052 21.8351 29.7293 20.3445 29.8975C19.3393 30.011 18.4621 29.9593 17.4596 29.7629C16.5809 29.5907 15.7327 29.2756 14.952 28.8371C13.1132 27.8044 12.126 26.7409 11.2107 25.1386C10.681 24.2113 10.303 23.1958 10.1655 22.1367C10.0517 21.2602 10.0589 20.4879 10.1544 19.6373C10.3004 18.3378 10.7168 17.0731 11.3964 15.956C12.3504 14.3877 13.3816 13.4125 15.0616 12.4997C15.7731 12.1131 16.5387 11.8304 17.3296 11.6567C19.3324 11.2169 20.629 11.3458 22.5759 11.956C23.6591 12.2955 24.8356 13.0229 25.8362 13.9722C28.0243 16.0481 28.1911 19.3058 28.2464 22.3215C28.2516 22.601 27.996 22.8124 27.7209 22.7627C26.3696 22.5183 25.3981 22.4987 24.0703 22.7098C23.7143 22.7664 23.4214 22.3979 23.5175 22.0505C23.5591 21.8997 23.5918 21.7517 23.6163 21.6058C24.0088 19.271 22.4111 16.6059 20.0547 16.3763C18.718 16.246 17.3943 16.7918 16.4138 17.8864C15.8286 18.438 15.5049 19.3033 15.4028 20.2261C15.1383 22.6172 17.0941 24.9295 19.497 25.0438C19.9555 25.0656 20.3982 24.999 20.8505 24.8456C22.2759 24.3625 23.6654 23.6403 25.1662 23.7534C29.6812 24.0934 32.8523 26.1288 33.6866 31.9217C33.724 32.1814 33.5203 32.413 33.258 32.413Z" fill="#FAFAFA"/>
</g>
<defs>
<filter id="filter0_di" x="8.44906" y="11.3963" width="26.8744" height="24.2814" filterUnits="userSpaceOnUse" color-interpolation-filters="sRGB">
<feFlood flood-opacity="0" result="BackgroundImageFix"/>
<feColorMatrix in="SourceAlpha" type="matrix" values="0 0 0 0 0 0 0 0 0 0 0 0 0 0 0 0 0 0 127 0"/>
<feOffset dy="1.63237"/>
<feGaussianBlur stdDeviation="0.816183"/>
<feColorMatrix type="matrix" values="0 0 0 0 0 0 0 0 0 0 0 0 0 0 0 0 0 0 0.07 0"/>
<feBlend mode="normal" in2="BackgroundImageFix" result="effect1_dropShadow"/>
<feBlend mode="normal" in="SourceGraphic" in2="effect1_dropShadow" result="shape"/>
<feColorMatrix in="SourceAlpha" type="matrix" values="0 0 0 0 0 0 0 0 0 0 0 0 0 0 0 0 0 0 127 0" result="hardAlpha"/>
<feOffset dy="1.63237"/>
<feGaussianBlur stdDeviation="1.02023"/>
<feComposite in2="hardAlpha" operator="arithmetic" k2="-1" k3="1"/>
<feColorMatrix type="matrix" values="0 0 0 0 0.219608 0 0 0 0 0.533333 0 0 0 0 1 0 0 0 0.13 0"/>
<feBlend mode="normal" in2="shape" result="effect2_innerShadow"/>
</filter>
<linearGradient id="paint0_linear" x1="189.169" y1="-59.0292" x2="177.57" y2="54.1336" gradientUnits="userSpaceOnUse">
<stop stop-color="#5498FF"/>
<stop offset="0.515625" stop-color="#428EFF"/>
<stop offset="1" stop-color="#297FFF"/>
</linearGradient>
<linearGradient id="paint1_linear" x1="52.463" y1="-66.3077" x2="19.6129" y2="48.5381" gradientUnits="userSpaceOnUse">
<stop stop-color="#5498FF"/>
<stop offset="0.515625" stop-color="#428EFF"/>
<stop offset="1" stop-color="#297FFF"/>
</linearGradient>
</defs>
</svg>
