<svg width="149" height="135" viewBox="0 0 149 135" fill="none" xmlns="http://www.w3.org/2000/svg">
<circle opacity="0.1" cx="81.5" cy="67.4999" r="67.5" fill="url(#paint0_linear)"/>
<path fill-rule="evenodd" clip-rule="evenodd" d="M76.4231 66.5011C64.6435 66.5011 55.0943 74.8798 55.0943 85.2154V85.2631C55.0943 95.5988 64.6435 103.977 76.4231 103.977H107.877C109.052 103.977 110.204 103.894 111.328 103.734L117.422 108.898C117.587 109.039 117.809 109.117 118.039 109.117C118.53 109.117 118.928 108.768 118.928 108.337L118.928 101.273C125.089 97.9913 129.206 92.049 129.206 85.2631V85.2154C129.206 74.8798 119.656 66.5011 107.877 66.5011H76.4231Z" fill="#1D4885"/>
<path d="M81.5964 21.6648H36.6853C19.8573 21.6648 6.21558 33.6343 6.21558 48.3995C6.21558 63.1647 19.8573 75.1343 36.6853 75.1343H81.5964C98.4244 75.1343 112.066 63.1647 112.066 48.3995C112.066 33.6343 98.4244 21.6648 81.5964 21.6648Z" fill="url(#paint1_linear)"/>
<path fill-rule="evenodd" clip-rule="evenodd" d="M20.895 67.3575V81.3534C20.895 81.9686 21.4634 82.4674 22.1646 82.4674C22.4934 82.4674 22.8095 82.3554 23.0461 82.1551L34.7678 72.2314L20.895 67.3575Z" fill="url(#paint2_linear)"/>
<path d="M38.7484 51.7414C41.4655 51.7414 43.668 49.8088 43.668 47.4248C43.668 45.0409 41.4655 43.1083 38.7484 43.1083C36.0314 43.1083 33.8289 45.0409 33.8289 47.4248C33.8289 49.8088 36.0314 51.7414 38.7484 51.7414Z" fill="white"/>
<path d="M58.903 51.7414C61.62 51.7414 63.8226 49.8088 63.8226 47.4248C63.8226 45.0409 61.62 43.1083 58.903 43.1083C56.186 43.1083 53.9834 45.0409 53.9834 47.4248C53.9834 49.8088 56.186 51.7414 58.903 51.7414Z" fill="white"/>
<path d="M79.5334 51.7414C82.2504 51.7414 84.453 49.8088 84.453 47.4248C84.453 45.0409 82.2504 43.1083 79.5334 43.1083C76.8164 43.1083 74.6138 45.0409 74.6138 47.4248C74.6138 49.8088 76.8164 51.7414 79.5334 51.7414Z" fill="white"/>
<defs>
<linearGradient id="paint0_linear" x1="175.583" y1="-204.224" x2="74.4065" y2="149.494" gradientUnits="userSpaceOnUse">
<stop stop-color="#5498FF"/>
<stop offset="0.515625" stop-color="#428EFF"/>
<stop offset="1" stop-color="#297FFF"/>
</linearGradient>
<linearGradient id="paint1_linear" x1="132.909" y1="-59.2221" x2="111.458" y2="89.2381" gradientUnits="userSpaceOnUse">
<stop stop-color="#5498FF"/>
<stop offset="0.515625" stop-color="#428EFF"/>
<stop offset="1" stop-color="#297FFF"/>
</linearGradient>
<linearGradient id="paint2_linear" x1="37.4995" y1="44.4999" x2="25.337" y2="83.5396" gradientUnits="userSpaceOnUse">
<stop stop-color="#5498FF"/>
<stop offset="0.515625" stop-color="#428EFF"/>
<stop offset="1" stop-color="#297FFF"/>
</linearGradient>
</defs>
</svg>
