<svg width="24" height="24" viewBox="0 0 24 24" fill="none" xmlns="http://www.w3.org/2000/svg">
<path d="M3 5.99963H5H21" stroke="#E83F5B" stroke-width="2" stroke-linecap="round" stroke-linejoin="round"/>
<path d="M8 5.99963V3.99963C8 3.4692 8.21071 2.96049 8.58579 2.58542C8.96086 2.21035 9.46957 1.99963 10 1.99963H14C14.5304 1.99963 15.0391 2.21035 15.4142 2.58542C15.7893 2.96049 16 3.4692 16 3.99963V5.99963M19 5.99963V19.9996C19 20.5301 18.7893 21.0388 18.4142 21.4138C18.0391 21.7889 17.5304 21.9996 17 21.9996H7C6.46957 21.9996 5.96086 21.7889 5.58579 21.4138C5.21071 21.0388 5 20.5301 5 19.9996V5.99963H19Z" stroke="#E83F5B" stroke-width="2" stroke-linecap="round" stroke-linejoin="round"/>
</svg>
