<svg width="20" height="20" viewBox="0 0 20 20" fill="none" xmlns="http://www.w3.org/2000/svg">
<g clip-path="url(#clip0)">
<path d="M14.1667 17.4999V15.8333C14.1667 14.9492 13.8155 14.1014 13.1904 13.4762C12.5653 12.8511 11.7174 12.4999 10.8334 12.4999H4.16671C3.28265 12.4999 2.43481 12.8511 1.80968 13.4762C1.18456 14.1014 0.833374 14.9492 0.833374 15.8333V17.4999" stroke="url(#paint0_linear)" stroke-width="2" stroke-linecap="round" stroke-linejoin="round"/>
<path d="M7.49996 9.16659C9.34091 9.16659 10.8333 7.67421 10.8333 5.83326C10.8333 3.99231 9.34091 2.49992 7.49996 2.49992C5.65901 2.49992 4.16663 3.99231 4.16663 5.83326C4.16663 7.67421 5.65901 9.16659 7.49996 9.16659Z" stroke="url(#paint1_linear)" stroke-width="2" stroke-linecap="round" stroke-linejoin="round"/>
<path d="M19.1666 17.4999V15.8333C19.1661 15.0947 18.9203 14.3772 18.4678 13.7935C18.0153 13.2098 17.3817 12.7929 16.6666 12.6083" stroke="url(#paint2_linear)" stroke-width="2" stroke-linecap="round" stroke-linejoin="round"/>
<path d="M13.3334 2.60826C14.0504 2.79184 14.6859 3.20884 15.1397 3.79352C15.5936 4.37819 15.8399 5.09728 15.8399 5.83743C15.8399 6.57757 15.5936 7.29666 15.1397 7.88133C14.6859 8.46601 14.0504 8.88301 13.3334 9.06659" stroke="url(#paint3_linear)" stroke-width="2" stroke-linecap="round" stroke-linejoin="round"/>
</g>
<defs>
<linearGradient id="paint0_linear" x1="16.7922" y1="4.93608" x2="15.2893" y2="18.9474" gradientUnits="userSpaceOnUse">
<stop stop-color="#5498FF"/>
<stop offset="0.515625" stop-color="#428EFF"/>
<stop offset="1" stop-color="#297FFF"/>
</linearGradient>
<linearGradient id="paint1_linear" x1="12.146" y1="-7.5852" x2="7.14966" y2="9.88237" gradientUnits="userSpaceOnUse">
<stop stop-color="#5498FF"/>
<stop offset="0.515625" stop-color="#428EFF"/>
<stop offset="1" stop-color="#297FFF"/>
</linearGradient>
<linearGradient id="paint2_linear" x1="19.6589" y1="5.2083" x2="13.7497" y2="15.7665" gradientUnits="userSpaceOnUse">
<stop stop-color="#5498FF"/>
<stop offset="0.515625" stop-color="#428EFF"/>
<stop offset="1" stop-color="#297FFF"/>
</linearGradient>
<linearGradient id="paint3_linear" x1="16.3335" y1="-7.1617" x2="7.59064" y2="4.701" gradientUnits="userSpaceOnUse">
<stop stop-color="#5498FF"/>
<stop offset="0.515625" stop-color="#428EFF"/>
<stop offset="1" stop-color="#297FFF"/>
</linearGradient>
<clipPath id="clip0">
<rect width="20" height="20" fill="white"/>
</clipPath>
</defs>
</svg>
